TITLE ""
FILE "P1Q_t_0739-0748.mp3" MP3
  TRACK 01 AUDIO
    TITLE "P1Q_t_0739-0748_01"
    INDEX 01 00:00:00
  TRACK 02 AUDIO
    TITLE "P1Q_t_0739-0748_02"
    INDEX 01 00:00:71
  TRACK 03 AUDIO
    TITLE "P1Q_t_0739-0748_03"
    INDEX 01 00:01:23
  TRACK 04 AUDIO
    TITLE "P1Q_t_0739-0748_04"
    INDEX 01 00:04:28
  TRACK 05 AUDIO
    TITLE "P1Q_t_0739-0748_05"
    INDEX 01 00:04:47
  TRACK 06 AUDIO
    TITLE "P1Q_t_0739-0748_06"
    INDEX 01 00:08:06
  TRACK 07 AUDIO
    TITLE "P1Q_t_0739-0748_07"
    INDEX 01 00:08:53
  TRACK 08 AUDIO
    TITLE "P1Q_t_0739-0748_08"
    INDEX 01 00:09:72
  TRACK 09 AUDIO
    TITLE "P1Q_t_0739-0748_09"
    INDEX 01 00:10:19
  TRACK 10 AUDIO
    TITLE "P1Q_t_0739-0748_10"
    INDEX 01 00:13:29
  TRACK 11 AUDIO
    TITLE "P1Q_t_0739-0748_11"
    INDEX 01 00:13:48
  TRACK 12 AUDIO
    TITLE "P1Q_t_0739-0748_12"
    INDEX 01 00:18:12
  TRACK 13 AUDIO
    TITLE "P1Q_t_0739-0748_13"
    INDEX 01 00:18:59
  TRACK 14 AUDIO
    TITLE "P1Q_t_0739-0748_14"
    INDEX 01 00:20:15
  TRACK 15 AUDIO
    TITLE "P1Q_t_0739-0748_15"
    INDEX 01 00:20:38
  TRACK 16 AUDIO
    TITLE "P1Q_t_0739-0748_16"
    INDEX 01 00:22:61
  TRACK 17 AUDIO
    TITLE "P1Q_t_0739-0748_17"
    INDEX 01 00:23:05
  TRACK 18 AUDIO
    TITLE "P1Q_t_0739-0748_18"
    INDEX 01 00:28:13
  TRACK 19 AUDIO
    TITLE "P1Q_t_0739-0748_19"
    INDEX 01 00:28:60
  TRACK 20 AUDIO
    TITLE "P1Q_t_0739-0748_20"
    INDEX 01 00:29:63
  TRACK 21 AUDIO
    TITLE "P1Q_t_0739-0748_21"
    INDEX 01 00:30:09
  TRACK 22 AUDIO
    TITLE "P1Q_t_0739-0748_22"
    INDEX 01 00:33:02
  TRACK 23 AUDIO
    TITLE "P1Q_t_0739-0748_23"
    INDEX 01 00:33:22
  TRACK 24 AUDIO
    TITLE "P1Q_t_0739-0748_24"
    INDEX 01 00:37:29
  TRACK 25 AUDIO
    TITLE "P1Q_t_0739-0748_25"
    INDEX 01 00:38:01
  TRACK 26 AUDIO
    TITLE "P1Q_t_0739-0748_26"
    INDEX 01 00:39:18
  TRACK 27 AUDIO
    TITLE "P1Q_t_0739-0748_27"
    INDEX 01 00:39:40
  TRACK 28 AUDIO
    TITLE "P1Q_t_0739-0748_28"
    INDEX 01 00:41:62
  TRACK 29 AUDIO
    TITLE "P1Q_t_0739-0748_29"
    INDEX 01 00:42:05
  TRACK 30 AUDIO
    TITLE "P1Q_t_0739-0748_30"
    INDEX 01 00:45:58
  TRACK 31 AUDIO
    TITLE "P1Q_t_0739-0748_31"
    INDEX 01 00:46:28
  TRACK 32 AUDIO
    TITLE "P1Q_t_0739-0748_32"
    INDEX 01 00:47:49
  TRACK 33 AUDIO
    TITLE "P1Q_t_0739-0748_33"
    INDEX 01 00:47:69
  TRACK 34 AUDIO
    TITLE "P1Q_t_0739-0748_34"
    INDEX 01 00:50:38
  TRACK 35 AUDIO
    TITLE "P1Q_t_0739-0748_35"
    INDEX 01 00:50:57
  TRACK 36 AUDIO
    TITLE "P1Q_t_0739-0748_36"
    INDEX 01 00:54:73
  TRACK 37 AUDIO
    TITLE "P1Q_t_0739-0748_37"
    INDEX 01 00:55:45
  TRACK 38 AUDIO
    TITLE "P1Q_t_0739-0748_38"
    INDEX 01 00:56:64
  TRACK 39 AUDIO
    TITLE "P1Q_t_0739-0748_39"
    INDEX 01 00:57:08
  TRACK 40 AUDIO
    TITLE "P1Q_t_0739-0748_40"
    INDEX 01 01:01:20
  TRACK 41 AUDIO
    TITLE "P1Q_t_0739-0748_41"
    INDEX 01 01:01:39
  TRACK 42 AUDIO
    TITLE "P1Q_t_0739-0748_42"
    INDEX 01 01:06:58
  TRACK 43 AUDIO
    TITLE "P1Q_t_0739-0748_43"
    INDEX 01 01:07:28
  TRACK 44 AUDIO
    TITLE "P1Q_t_0739-0748_44"
    INDEX 01 01:08:39
  TRACK 45 AUDIO
    TITLE "P1Q_t_0739-0748_45"
    INDEX 01 01:08:61
  TRACK 46 AUDIO
    TITLE "P1Q_t_0739-0748_46"
    INDEX 01 01:09:60
  TRACK 47 AUDIO
    TITLE "P1Q_t_0739-0748_47"
    INDEX 01 01:10:07
  TRACK 48 AUDIO
    TITLE "P1Q_t_0739-0748_48"
    INDEX 01 01:14:05
  TRACK 49 AUDIO
    TITLE "P1Q_t_0739-0748_49"
    INDEX 01 01:14:52
  TRACK 50 AUDIO
    TITLE "P1Q_t_0739-0748_50"
    INDEX 01 01:15:67
  TRACK 51 AUDIO
    TITLE "P1Q_t_0739-0748_51"
    INDEX 01 01:16:12
  TRACK 52 AUDIO
    TITLE "P1Q_t_0739-0748_52"
    INDEX 01 01:17:07
  TRACK 53 AUDIO
    TITLE "P1Q_t_0739-0748_53"
    INDEX 01 01:17:29
  TRACK 54 AUDIO
    TITLE "P1Q_t_0739-0748_54"
    INDEX 01 01:21:24
  TRACK 55 AUDIO
    TITLE "P1Q_t_0739-0748_55"
    INDEX 01 01:21:71
  TRACK 56 AUDIO
    TITLE "P1Q_t_0739-0748_56"
    INDEX 01 01:23:17
  TRACK 57 AUDIO
    TITLE "P1Q_t_0739-0748_57"
    INDEX 01 01:23:37
  TRACK 58 AUDIO
    TITLE "P1Q_t_0739-0748_58"
    INDEX 01 01:25:50
  TRACK 59 AUDIO
    TITLE "P1Q_t_0739-0748_59"
    INDEX 01 01:25:69
  TRACK 60 AUDIO
    TITLE "P1Q_t_0739-0748_60"
    INDEX 01 01:30:45
